<?xml version="1.0" encoding="UTF-8" standalone="no"?>
<!DOCTYPE svg PUBLIC "-//W3C//DTD SVG 1.1//EN"
 "http://www.w3.org/Graphics/SVG/1.1/DTD/svg11.dtd">
<!-- Generated by graphviz version 2.40.1 (20161225.0304)
 -->
<!-- Title: aicpa_soc2_controls Pages: 1 -->
<svg width="350pt" height="585pt"
 viewBox="0.00 0.00 350.00 585.00" xmlns="http://www.w3.org/2000/svg" xmlns:xlink="http://www.w3.org/1999/xlink">
<g id="graph0" class="graph" transform="scale(1 1) rotate(0) translate(4 581)">
<title>aicpa_soc2_controls</title>
<polygon fill="#ffffff" stroke="transparent" points="-4,4 -4,-581 346,-581 346,4 -4,4"/>
<!-- aicpa_soc2_controls -->
<g id="node1" class="node">
<title>aicpa_soc2_controls</title>
<polygon fill="#efefef" stroke="transparent" points="46,-495.5 46,-530.5 296,-530.5 296,-495.5 46,-495.5"/>
<polygon fill="none" stroke="#000000" points="46,-495.5 46,-530.5 296,-530.5 296,-495.5 46,-495.5"/>
<text text-anchor="start" x="52.8121" y="-508.3" font-family="Arial Bold" font-size="18.00" fill="#000000">aicpa_soc2_controls</text>
<text text-anchor="start" x="216.8569" y="-508.3" font-family="Arial" font-size="14.00" fill="#000000">    </text>
<text text-anchor="start" x="251.0617" y="-508.3" font-family="Arial" font-size="14.00" fill="#666666">[table]</text>
<polygon fill="none" stroke="#000000" points="46,-465.5 46,-495.5 296,-495.5 296,-465.5 46,-465.5"/>
<text text-anchor="start" x="53" y="-476.9" font-family="Arial" font-size="14.00" fill="#000000"># </text>
<text text-anchor="start" x="64.6732" y="-476.9" font-family="Arial" font-size="14.00" fill="#666666">[BIGINT]</text>
<polygon fill="none" stroke="#000000" points="46,-435.5 46,-465.5 296,-465.5 296,-435.5 46,-435.5"/>
<text text-anchor="start" x="53" y="-446.9" font-family="Arial" font-size="14.00" fill="#000000">Control Identifier </text>
<text text-anchor="start" x="159.5694" y="-446.9" font-family="Arial" font-size="14.00" fill="#666666">[VARCHAR]</text>
<polygon fill="none" stroke="#000000" points="46,-405.5 46,-435.5 296,-435.5 296,-405.5 46,-405.5"/>
<text text-anchor="start" x="53" y="-416.9" font-family="Arial" font-size="14.00" fill="#000000">Fii ID </text>
<text text-anchor="start" x="89.5442" y="-416.9" font-family="Arial" font-size="14.00" fill="#666666">[VARCHAR]</text>
<polygon fill="none" stroke="#000000" points="46,-375.5 46,-405.5 296,-405.5 296,-375.5 46,-375.5"/>
<text text-anchor="start" x="53" y="-386.9" font-family="Arial" font-size="14.00" fill="#000000">Common Criteria </text>
<text text-anchor="start" x="162.6536" y="-386.9" font-family="Arial" font-size="14.00" fill="#666666">[VARCHAR]</text>
<polygon fill="none" stroke="#000000" points="46,-345.5 46,-375.5 296,-375.5 296,-345.5 46,-345.5"/>
<text text-anchor="start" x="53" y="-356.9" font-family="Arial" font-size="14.00" fill="#000000">Common Criteria type </text>
<text text-anchor="start" x="193" y="-356.9" font-family="Arial" font-size="14.00" fill="#666666">[VARCHAR]</text>
<polygon fill="none" stroke="#000000" points="46,-315.5 46,-345.5 296,-345.5 296,-315.5 46,-315.5"/>
<text text-anchor="start" x="53" y="-326.9" font-family="Arial" font-size="14.00" fill="#000000">Name </text>
<text text-anchor="start" x="94.223" y="-326.9" font-family="Arial" font-size="14.00" fill="#666666">[VARCHAR]</text>
<polygon fill="none" stroke="#000000" points="46,-285.5 46,-315.5 296,-315.5 296,-285.5 46,-285.5"/>
<text text-anchor="start" x="53" y="-296.9" font-family="Arial" font-size="14.00" fill="#000000">Questions Descriptions </text>
<text text-anchor="start" x="200.8008" y="-296.9" font-family="Arial" font-size="14.00" fill="#666666">[VARCHAR]</text>
<polygon fill="none" stroke="#000000" points="46,-255.5 46,-285.5 296,-285.5 296,-255.5 46,-255.5"/>
<text text-anchor="start" x="53" y="-266.9" font-family="Arial" font-size="14.00" fill="#000000">Field8 </text>
<text text-anchor="start" x="95.0042" y="-266.9" font-family="Arial" font-size="14.00" fill="#666666">[VARCHAR]</text>
<polygon fill="none" stroke="#000000" points="46,-225.5 46,-255.5 296,-255.5 296,-225.5 46,-225.5"/>
<text text-anchor="start" x="53" y="-236.9" font-family="Arial" font-size="14.00" fill="#000000">Field9 </text>
<text text-anchor="start" x="95.0042" y="-236.9" font-family="Arial" font-size="14.00" fill="#666666">[VARCHAR]</text>
<polygon fill="none" stroke="#000000" points="46,-195.5 46,-225.5 296,-225.5 296,-195.5 46,-195.5"/>
<text text-anchor="start" x="53" y="-206.9" font-family="Arial" font-size="14.00" fill="#000000">Field10 </text>
<text text-anchor="start" x="102.7868" y="-206.9" font-family="Arial" font-size="14.00" fill="#666666">[VARCHAR]</text>
<polygon fill="none" stroke="#000000" points="46,-165.5 46,-195.5 296,-195.5 296,-165.5 46,-165.5"/>
<text text-anchor="start" x="53" y="-176.9" font-family="Arial" font-size="14.00" fill="#000000">Field11 </text>
<text text-anchor="start" x="102.7868" y="-176.9" font-family="Arial" font-size="14.00" fill="#666666">[VARCHAR]</text>
<polygon fill="none" stroke="#000000" points="46,-135.5 46,-165.5 296,-165.5 296,-135.5 46,-135.5"/>
<text text-anchor="start" x="53" y="-146.9" font-family="Arial" font-size="14.00" fill="#000000">Field12 </text>
<text text-anchor="start" x="102.7868" y="-146.9" font-family="Arial" font-size="14.00" fill="#666666">[VARCHAR]</text>
<polygon fill="none" stroke="#000000" points="46,-105.5 46,-135.5 296,-135.5 296,-105.5 46,-105.5"/>
<text text-anchor="start" x="53" y="-116.9" font-family="Arial" font-size="14.00" fill="#000000">Field13 </text>
<text text-anchor="start" x="102.7868" y="-116.9" font-family="Arial" font-size="14.00" fill="#666666">[VARCHAR]</text>
<polygon fill="none" stroke="#000000" points="46,-75.5 46,-105.5 296,-105.5 296,-75.5 46,-75.5"/>
<text text-anchor="start" x="53" y="-86.9" font-family="Arial" font-size="14.00" fill="#000000">Field14 </text>
<text text-anchor="start" x="102.7868" y="-86.9" font-family="Arial" font-size="14.00" fill="#666666">[VARCHAR]</text>
<polygon fill="none" stroke="#000000" points="46,-45.5 46,-75.5 296,-75.5 296,-45.5 46,-45.5"/>
<text text-anchor="start" x="53" y="-56.9" font-family="Arial" font-size="14.00" fill="#000000">Field15 </text>
<text text-anchor="start" x="102.7868" y="-56.9" font-family="Arial" font-size="14.00" fill="#666666">[VARCHAR]</text>
<polygon fill="none" stroke="#000000" stroke-width="3" points="44.5,-44.5 44.5,-532.5 297.5,-532.5 297.5,-44.5 44.5,-44.5"/>
</g>
</g>
</svg>
