<?xml version="1.0" encoding="UTF-8" standalone="no"?>
<!DOCTYPE svg PUBLIC "-//W3C//DTD SVG 1.1//EN"
 "http://www.w3.org/Graphics/SVG/1.1/DTD/svg11.dtd">
<!-- Generated by graphviz version 2.40.1 (20161225.0304)
 -->
<!-- Title: hipaa_security_rule_safeguards Pages: 1 -->
<svg width="441pt" height="315pt"
 viewBox="0.00 0.00 441.00 315.00" xmlns="http://www.w3.org/2000/svg" xmlns:xlink="http://www.w3.org/1999/xlink">
<g id="graph0" class="graph" transform="scale(1 1) rotate(0) translate(4 311)">
<title>hipaa_security_rule_safeguards</title>
<polygon fill="#ffffff" stroke="transparent" points="-4,4 -4,-311 437,-311 437,4 -4,4"/>
<!-- hipaa_security_rule_safeguards -->
<g id="node1" class="node">
<title>hipaa_security_rule_safeguards</title>
<polygon fill="#efefef" stroke="transparent" points="46.5,-225.5 46.5,-260.5 387.5,-260.5 387.5,-225.5 46.5,-225.5"/>
<polygon fill="none" stroke="#000000" points="46.5,-225.5 46.5,-260.5 387.5,-260.5 387.5,-225.5 46.5,-225.5"/>
<text text-anchor="start" x="53.3" y="-238.3" font-family="Arial Bold" font-size="18.00" fill="#000000">hipaa_security_rule_safeguards</text>
<text text-anchor="start" x="308.369" y="-238.3" font-family="Arial" font-size="14.00" fill="#000000">    </text>
<text text-anchor="start" x="342.5738" y="-238.3" font-family="Arial" font-size="14.00" fill="#666666">[table]</text>
<polygon fill="none" stroke="#000000" points="46.5,-195.5 46.5,-225.5 387.5,-225.5 387.5,-195.5 46.5,-195.5"/>
<text text-anchor="start" x="53.5" y="-206.9" font-family="Arial" font-size="14.00" fill="#000000"># </text>
<text text-anchor="start" x="65.1732" y="-206.9" font-family="Arial" font-size="14.00" fill="#666666">[BIGINT]</text>
<polygon fill="none" stroke="#000000" points="46.5,-165.5 46.5,-195.5 387.5,-195.5 387.5,-165.5 46.5,-165.5"/>
<text text-anchor="start" x="53.5" y="-176.9" font-family="Arial" font-size="14.00" fill="#000000">Common Criteria </text>
<text text-anchor="start" x="163.1536" y="-176.9" font-family="Arial" font-size="14.00" fill="#666666">[VARCHAR]</text>
<polygon fill="none" stroke="#000000" points="46.5,-135.5 46.5,-165.5 387.5,-165.5 387.5,-135.5 46.5,-135.5"/>
<text text-anchor="start" x="53.5" y="-146.9" font-family="Arial" font-size="14.00" fill="#000000">HIPAA Security Rule Reference </text>
<text text-anchor="start" x="254.9782" y="-146.9" font-family="Arial" font-size="14.00" fill="#666666">[VARCHAR]</text>
<polygon fill="none" stroke="#000000" points="46.5,-105.5 46.5,-135.5 387.5,-135.5 387.5,-105.5 46.5,-105.5"/>
<text text-anchor="start" x="53.5" y="-116.9" font-family="Arial" font-size="14.00" fill="#000000">Safeguard </text>
<text text-anchor="start" x="121.974" y="-116.9" font-family="Arial" font-size="14.00" fill="#666666">[VARCHAR]</text>
<polygon fill="none" stroke="#000000" points="46.5,-75.5 46.5,-105.5 387.5,-105.5 387.5,-75.5 46.5,-75.5"/>
<text text-anchor="start" x="53.5" y="-86.9" font-family="Arial" font-size="14.00" fill="#000000">Handled by nQ </text>
<text text-anchor="start" x="150.7538" y="-86.9" font-family="Arial" font-size="14.00" fill="#666666">[VARCHAR]</text>
<polygon fill="none" stroke="#000000" points="46.5,-45.5 46.5,-75.5 387.5,-75.5 387.5,-45.5 46.5,-45.5"/>
<text text-anchor="start" x="53.5" y="-56.9" font-family="Arial" font-size="14.00" fill="#000000">FII Id </text>
<text text-anchor="start" x="89.2882" y="-56.9" font-family="Arial" font-size="14.00" fill="#666666">[VARCHAR]</text>
<polygon fill="none" stroke="#000000" stroke-width="3" points="44.5,-44.5 44.5,-262.5 388.5,-262.5 388.5,-44.5 44.5,-44.5"/>
</g>
</g>
</svg>
