<?xml version="1.0" encoding="UTF-8" standalone="no"?>
<!DOCTYPE svg PUBLIC "-//W3C//DTD SVG 1.1//EN"
 "http://www.w3.org/Graphics/SVG/1.1/DTD/svg11.dtd">
<!-- Generated by graphviz version 2.40.1 (20161225.0304)
 -->
<!-- Title: scf_domain Pages: 1 -->
<svg width="473pt" height="285pt"
 viewBox="0.00 0.00 473.00 285.00" xmlns="http://www.w3.org/2000/svg" xmlns:xlink="http://www.w3.org/1999/xlink">
<g id="graph0" class="graph" transform="scale(1 1) rotate(0) translate(4 281)">
<title>scf_domain</title>
<polygon fill="#ffffff" stroke="transparent" points="-4,4 -4,-281 469,-281 469,4 -4,4"/>
<!-- scf_domain -->
<g id="node1" class="node">
<title>scf_domain</title>
<polygon fill="#efefef" stroke="transparent" points="46.5,-195.5 46.5,-230.5 419.5,-230.5 419.5,-195.5 46.5,-195.5"/>
<polygon fill="none" stroke="#000000" points="46.5,-195.5 46.5,-230.5 419.5,-230.5 419.5,-195.5 46.5,-195.5"/>
<text text-anchor="start" x="150.8247" y="-208.3" font-family="Arial Bold" font-size="18.00" fill="#000000">scf_domain</text>
<text text-anchor="start" x="242.8443" y="-208.3" font-family="Arial" font-size="14.00" fill="#000000">    </text>
<text text-anchor="start" x="277.0491" y="-208.3" font-family="Arial" font-size="14.00" fill="#666666">[table]</text>
<polygon fill="none" stroke="#000000" points="46.5,-165.5 46.5,-195.5 419.5,-195.5 419.5,-165.5 46.5,-165.5"/>
<text text-anchor="start" x="53.5" y="-176.9" font-family="Arial" font-size="14.00" fill="#000000">#  </text>
<text text-anchor="start" x="73.7244" y="-176.9" font-family="Arial" font-size="14.00" fill="#666666">[VARCHAR]</text>
<polygon fill="none" stroke="#000000" points="46.5,-135.5 46.5,-165.5 419.5,-165.5 419.5,-135.5 46.5,-135.5"/>
<text text-anchor="start" x="53.5" y="-146.9" font-family="Arial" font-size="14.00" fill="#000000">SCF Domain </text>
<text text-anchor="start" x="137.4986" y="-146.9" font-family="Arial" font-size="14.00" fill="#666666">[VARCHAR]</text>
<polygon fill="none" stroke="#000000" points="46.5,-105.5 46.5,-135.5 419.5,-135.5 419.5,-105.5 46.5,-105.5"/>
<text text-anchor="start" x="53.5" y="-116.9" font-family="Arial" font-size="14.00" fill="#000000">SCF Identifier </text>
<text text-anchor="start" x="142.953" y="-116.9" font-family="Arial" font-size="14.00" fill="#666666">[VARCHAR]</text>
<polygon fill="none" stroke="#000000" points="46.5,-75.5 46.5,-105.5 419.5,-105.5 419.5,-75.5 46.5,-75.5"/>
<text text-anchor="start" x="53.0622" y="-86.9" font-family="Arial" font-size="14.00" fill="#000000">Security &amp; Privacy by Design (S|P) Principles </text>
<text text-anchor="start" x="336.7204" y="-86.9" font-family="Arial" font-size="14.00" fill="#666666">[VARCHAR]</text>
<polygon fill="none" stroke="#000000" points="46.5,-45.5 46.5,-75.5 419.5,-75.5 419.5,-45.5 46.5,-45.5"/>
<text text-anchor="start" x="53.5" y="-56.9" font-family="Arial" font-size="14.00" fill="#000000">Principle Intent </text>
<text text-anchor="start" x="149.9656" y="-56.9" font-family="Arial" font-size="14.00" fill="#666666">[VARCHAR]</text>
<polygon fill="none" stroke="#000000" stroke-width="3" points="44.5,-44.5 44.5,-232.5 420.5,-232.5 420.5,-44.5 44.5,-44.5"/>
</g>
</g>
</svg>
